<?xml version="1.0" encoding="UTF-8" standalone="no"?>
<svg
   xmlns:dc="http://purl.org/dc/elements/1.1/"
   xmlns:cc="http://creativecommons.org/ns#"
   xmlns:rdf="http://www.w3.org/1999/02/22-rdf-syntax-ns#"
   xmlns:svg="http://www.w3.org/2000/svg"
   xmlns="http://www.w3.org/2000/svg"
   xmlns:sodipodi="http://sodipodi.sourceforge.net/DTD/sodipodi-0.dtd"
   xmlns:inkscape="http://www.inkscape.org/namespaces/inkscape"
   xml:space="preserve"
   version="1.1"
   style="shape-rendering:geometricPrecision;text-rendering:geometricPrecision;image-rendering:optimizeQuality;"
   viewBox="0 0 849 746.25"
   x="0px"
   y="0px"
   fill-rule="evenodd"
   clip-rule="evenodd"
   id="svg24"
   sodipodi:docname="redshed.svg"
   inkscape:export-filename="/home/bizarro/Documents/Projects/go/src/github.com/chebizarro/redshed/web/src/assets/images/vue-crud-avatar.png"
   inkscape:export-xdpi="90"
   inkscape:export-ydpi="90"
   inkscape:version="0.92.3 (2405546, 2018-03-11)"><metadata
     id="metadata28"><rdf:RDF><cc:Work
         rdf:about=""><dc:format>image/svg+xml</dc:format><dc:type
           rdf:resource="http://purl.org/dc/dcmitype/StillImage" /><dc:title></dc:title></cc:Work></rdf:RDF></metadata><sodipodi:namedview
     pagecolor="#ffffff"
     bordercolor="#666666"
     borderopacity="1"
     objecttolerance="10"
     gridtolerance="10"
     guidetolerance="10"
     inkscape:pageopacity="0"
     inkscape:pageshadow="2"
     inkscape:window-width="1343"
     inkscape:window-height="686"
     id="namedview26"
     showgrid="false"
     inkscape:snap-global="false"
     inkscape:zoom="0.67671692"
     inkscape:cx="423.02228"
     inkscape:cy="373.125"
     inkscape:window-x="2243"
     inkscape:window-y="207"
     inkscape:window-maximized="0"
     inkscape:current-layer="svg24" /><defs
     id="defs4"><style
       type="text/css"
       id="style2">
   
    .fil1 {fill:black}
    .fil0 {fill:black}
   
  </style><clipPath
       clipPathUnits="userSpaceOnUse"
       id="clipPath4899"><path
         inkscape:connector-curvature="0"
         d="m 364.51486,165.59233 c -0.63103,-0.84835 -0.43392,-2.05072 0.43495,-2.65319 3.21862,-2.08776 6.35026,-4.34949 9.69936,-6.17628 6.78359,-4.15183 13.84668,-7.82871 21.13853,-11.00421 0.69592,-0.26097 1.47883,-0.39146 2.21824,-0.69592 4.96306,-2.09785 10.04643,-3.89881 15.22322,-5.39337 2.69669,-0.78291 5.56735,-1.13087 8.26404,-1.95727 2.17474,0.21747 3.91454,-1.21786 6.00229,-1.34835 l 5.1759,-0.39145 c 0.76772,0.006 1.53146,-0.11101 2.26173,-0.34796 1.96546,-0.7002 4.04859,-1.01045 6.13279,-0.91339 l 5.48036,-0.21748 c 1.81665,0.17903 3.64988,-0.0743 5.34987,-0.73941 1.74257,0.39413 3.52024,0.6127 5.30638,0.65242 h 11.70013 c 2.8478,-0.26842 5.71927,0.11841 8.39452,1.13087 l 8.69898,0.65243 1.95727,0.73941 c 1.24585,0.3445 2.53524,0.50567 3.82756,0.47844 1.37935,-0.0148 2.74991,0.22104 4.04502,0.69592 2.17475,1.13087 4.65396,0.52194 6.78521,1.52232 0.68827,0.35332 1.41921,0.61646 2.17475,0.78291 2.32806,0.0964 4.62913,0.53604 6.8287,1.30485 1.82678,0.91339 4.08852,0.30446 6.0023,1.34834 1.91377,1.04388 4.69745,0.30447 6.69821,1.7398 4.52337,0.7053 8.91933,2.06805 13.04848,4.04503 0.91339,0.39145 2.00076,0.52193 2.95765,0.8264 1.6963,0.60893 3.34911,1.21786 5.1324,1.6963 1.94,0.69392 3.81712,1.55244 5.61084,2.5662 2.08776,1.00038 4.13202,2.13125 6.26327,3.00115 5.80743,2.73853 11.41732,5.87774 16.78904,9.3949 2.60969,2.43572 5.9588,4.00153 8.69898,6.39375 3.25113,2.73739 6.30348,5.70253 9.13393,8.87297 3.59934,3.91437 6.64349,8.30496 9.04695,13.04847 1.73979,3.87105 3.95803,7.48112 5.9588,11.26518 1.04388,2.00077 2.00077,4.04503 3.00115,6.0458 0.29242,0.41558 0.52657,0.86924 0.69592,1.34834 0.75374,2.88032 1.75795,5.68919 3.00115,8.39452 0.26794,1.48978 0.69068,2.94751 1.26135,4.34949 0.32179,0.66586 0.49963,1.39205 0.52194,2.13125 0.18212,1.91194 0.59094,3.79545 1.21786,5.61084 0.46728,1.90834 0.71535,3.86375 0.73941,5.82832 l 0.95689,2.04426 c 0.65242,7.26365 0,14.44031 0,21.74746 -0.0755,0.73709 -0.22118,1.4653 -0.43495,2.17474 0,0.47845 -0.39146,1.04388 0,1.39184 1.34834,2.26174 0,4.34949 -0.39146,6.43725 0,0.69592 0.73942,1.39184 1.52233,1.21786 l 0.69591,-0.21748 1.52233,-0.65242 c 0.7022,3.90216 0.89228,7.87927 0.56543,11.83061 0.34796,3.95804 0.21747,7.95957 0.30446,11.87412 l 0.95689,2.04426 c 0.30447,1.39183 -0.73941,2.34872 -1.04388,3.65357 l -0.56543,6.56773 c -1.17992,2.49117 -1.60335,5.27368 -1.21786,8.00307 v 3.00115 l -1.17436,2.82716 c -0.12508,0.43937 -0.19807,0.89193 -0.21747,1.34835 -0.0154,3.4737 -0.74063,6.90759 -2.13126,10.09082 -0.45958,1.42381 -0.82286,2.87692 -1.08737,4.34949 -0.8451,2.5725 -1.4993,5.20383 -1.95727,7.87258 -1.65281,1.91377 -1.13087,4.34949 -1.34834,6.43725 -0.50773,1.6808 -1.28637,3.26748 -2.30523,4.69745 -1.00038,1.47882 -0.34796,3.47959 -1.60931,4.91492 -1.15506,4.56119 -2.91017,8.94896 -5.21939,13.04848 -1.24342,2.40432 -2.24859,4.92453 -3.00115,7.52462 -0.54889,1.90536 -1.36921,3.72177 -2.43572,5.39336 -2.73562,4.17462 -5.17724,8.53466 -7.30714,13.04848 -1.63951,3.07165 -3.56159,5.98389 -5.74133,8.69898 -1.04573,1.37095 -1.97677,2.8257 -2.78368,4.34949 -2.40629,4.74183 -5.45018,9.13205 -9.04694,13.04848 -0.58619,0.48948 -1.09888,1.06077 -1.52232,1.6963 -1.79665,2.76247 -3.78796,5.39333 -5.9588,7.87258 -1.49752,2.32484 -3.1851,4.5216 -5.04541,6.56773 -2.41559,2.23218 -4.57468,4.72681 -6.43725,7.43763 -0.5931,0.82985 -1.29534,1.57598 -2.08776,2.21824 l -12.09158,11.65664 c -1.3323,1.23584 -2.79004,2.32915 -4.34949,3.26212 -1.14106,0.98183 -2.14987,2.10761 -3.00115,3.34911 -0.47368,0.60121 -1.04753,1.11621 -1.6963,1.52232 -3.5074,2.21699 -6.76011,4.81333 -9.69937,7.74209 l -5.48036,2.69669 -3.4361,3.00115 c -2.91416,1.47882 -5.74133,3.26211 -8.69898,4.87143 -2.95766,1.60931 -5.74133,3.3491 -8.69898,4.82793 -2.95766,1.47883 -6.95919,3.30562 -10.39529,5.04541 -1.17436,0.60893 -2.5227,0.69592 -3.65357,1.17436 -1.1376,0.59778 -2.22812,1.28117 -3.26212,2.04427 -0.20635,0.16139 -0.443,0.27971 -0.69592,0.34795 -2.6924,0.83569 -5.33532,1.82315 -7.91607,2.95766 -1.78329,0.47844 -3.34911,1.30485 -5.08891,1.7398 -1.73979,0.43494 -4.00153,1.04387 -5.91531,1.6963 -1.91248,0.77958 -3.91388,1.3201 -5.9588,1.60931 -2.04426,0 -3.82755,1.39184 -6.0023,1.39184 -1.48414,0.27157 -2.94012,0.67924 -4.34949,1.21785 -1.52232,0.30447 -3.08814,0.26097 -4.65395,0.52194 -0.75218,0.19754 -1.4812,0.47457 -2.17475,0.82641 h -1.56582 c -3.62805,-0.23859 -7.26912,0.1889 -10.74324,1.26135 -1.00861,0.25269 -2.05142,0.34082 -3.08814,0.26097 l -8.48151,0.30446 -3.47959,1.13087 h -14.44031 c -2.06866,0.0391 -4.1327,-0.20979 -6.13279,-0.73941 -2.02876,-0.43809 -4.10102,-0.6424 -6.17627,-0.60893 -2.85461,0.24545 -5.72735,-0.17132 -8.39452,-1.21786 -0.504,-0.0835 -1.01832,-0.0835 -1.52232,0 -4.32582,-0.61402 -8.58993,-1.60365 -12.74401,-2.95765 -2.43572,-0.73942 -4.95842,-1.34835 -7.39414,-2.17475 -2.2808,-1.17134 -4.68887,-2.0762 -7.17666,-2.69668 -3.79241,-2.12858 -7.71466,-4.01707 -11.74363,-5.65434 -5.04541,-3.00115 -10.35179,-5.61085 -15.26671,-8.69899 -4.82936,-2.87368 -9.39911,-6.16274 -13.6574,-9.82985 -3.07646,-1.82365 -5.88663,-4.063 -8.35103,-6.65472 -2.78367,-2.60969 -6.17628,-4.34949 -8.69898,-7.26365 -2.65381,-2.82289 -5.51822,-5.44011 -8.5685,-7.82908 -3.25317,-2.81604 -6.01639,-6.15249 -8.17704,-9.87335 -1.65281,-2.47921 -3.4796,-4.91492 -5.1759,-7.39413 -4.21245,-5.92709 -8.01967,-12.132 -11.39566,-18.57233 -1.56582,-3.65358 -3.39261,-7.22016 -5.00192,-10.87373 -1.60931,-3.65357 -2.5227,-7.48113 -3.69707,-11.22169 -0.89696,-1.76592 -1.45744,-3.68334 -1.6528,-5.65434 0,-1.73979 -1.52233,-3.13163 -1.39184,-4.95842 0.13048,-1.82678 -1.30485,-3.30561 -1.30485,-5.04541 0,-1.73979 -0.30446,-2.95765 -0.56543,-4.34949 -0.22453,-0.7144 -0.53104,-1.40038 -0.9134,-2.04426 0,-2.26174 -0.30446,-4.34949 -0.47844,-6.69822 0.0138,-0.7436 -0.11921,-1.48263 -0.39145,-2.17474 -0.93662,-2.14692 -1.31084,-4.49706 -1.08738,-6.8287 0,-6.21978 0,-12.43955 -0.26097,-18.65932 -0.13265,-1.04549 -0.35086,-2.07833 -0.65242,-3.08814 l 0.69592,-1.91378 c 0,-2.39222 0,-4.87143 0.26097,-7.35064 -0.0263,-1.7496 0.26858,-3.48917 0.8699,-5.1324 0.30325,-0.94109 0.45019,-1.92553 0.43495,-2.91416 0,-2.47921 0.34795,-4.95842 0.47844,-7.13316 0.4975,-0.98586 0.89108,-2.02081 1.17436,-3.08814 0.34844,-1.95425 0.81322,-3.88596 1.39184,-5.78483 0.21015,-1.98198 0.76973,-3.91105 1.65281,-5.69783 0.21253,-2.39642 0.7996,-4.74468 1.73979,-6.95919 0.61933,-2.40245 1.44893,-4.74572 2.47921,-7.00268 0.27877,-0.41759 0.45739,-0.8939 0.52194,-1.39183 0.29913,-2.46954 1.09829,-4.85223 2.34873,-7.00269 0.91339,-2.30523 2.13125,-4.34949 2.87066,-6.87219 1.09407,-2.23099 2.05269,-4.52588 2.87067,-6.8722 0.13786,-0.48379 0.35861,-0.94 0.65242,-1.34834 3.13163,-5.39337 5.0889,-11.35217 8.04656,-16.83253 2.95765,-5.48036 5.48036,-10.65626 8.39452,-15.87565 1.01557,-2.01147 2.17861,-3.94503 3.47959,-5.78482 1.34834,-1.78329 2.04426,-4.04503 3.4361,-5.78482 2.39222,-2.95766 3.82755,-6.43725 6.08929,-9.48189 2.26173,-3.04465 5.61084,-7.08967 8.26403,-10.74325 1.47883,-2.04426 3.04464,-4.00153 4.74095,-5.87181 1.56165,-1.64349 3.01455,-3.38698 4.34949,-5.21939 0.77614,-0.99831 1.65041,-1.91629 2.60969,-2.74018 l 12.04809,-11.70013 c 1.00953,-1.15019 2.18179,-2.14661 3.4796,-2.95766 2.33005,-1.55269 4.58016,-3.22212 6.74171,-5.00191 1.08737,-0.69592 2.26173,-1.21786 3.4361,-1.78329 1.71065,-0.576 3.58817,-0.36915 5.1324,0.56543 l -5.30638,5.43687 c 0.54612,1.98515 2.9596,0.25992 4.43648,-0.21748 0.52194,0 0.73941,0 0.60893,0.43495"
         style="fill:none;stroke-width:4.3494916;image-rendering:optimizeQuality;shape-rendering:geometricPrecision;text-rendering:geometricPrecision"
         id="path4901" /></clipPath></defs><path
     inkscape:connector-curvature="0"
     d="m 364.51486,165.59233 c -0.63103,-0.84835 -0.43392,-2.05072 0.43495,-2.65319 3.21862,-2.08776 6.35026,-4.34949 9.69936,-6.17628 6.78359,-4.15183 13.84668,-7.82871 21.13853,-11.00421 0.69592,-0.26097 1.47883,-0.39146 2.21824,-0.69592 4.96306,-2.09785 10.04643,-3.89881 15.22322,-5.39337 2.69669,-0.78291 5.56735,-1.13087 8.26404,-1.95727 2.17474,0.21747 3.91454,-1.21786 6.00229,-1.34835 l 5.1759,-0.39145 c 0.76772,0.006 1.53146,-0.11101 2.26173,-0.34796 1.96546,-0.7002 4.04859,-1.01045 6.13279,-0.91339 l 5.48036,-0.21748 c 1.81665,0.17903 3.64988,-0.0743 5.34987,-0.73941 1.74257,0.39413 3.52024,0.6127 5.30638,0.65242 h 11.70013 c 2.8478,-0.26842 5.71927,0.11841 8.39452,1.13087 l 8.69898,0.65243 1.95727,0.73941 c 1.24585,0.3445 2.53524,0.50567 3.82756,0.47844 1.37935,-0.0148 2.74991,0.22104 4.04502,0.69592 2.17475,1.13087 4.65396,0.52194 6.78521,1.52232 0.68827,0.35332 1.41921,0.61646 2.17475,0.78291 2.32806,0.0964 4.62913,0.53604 6.8287,1.30485 1.82678,0.91339 4.08852,0.30446 6.0023,1.34834 1.91377,1.04388 4.69745,0.30447 6.69821,1.7398 4.52337,0.7053 8.91933,2.06805 13.04848,4.04503 0.91339,0.39145 2.00076,0.52193 2.95765,0.8264 1.6963,0.60893 3.34911,1.21786 5.1324,1.6963 1.94,0.69392 3.81712,1.55244 5.61084,2.5662 2.08776,1.00038 4.13202,2.13125 6.26327,3.00115 5.80743,2.73853 11.41732,5.87774 16.78904,9.3949 2.60969,2.43572 5.9588,4.00153 8.69898,6.39375 3.25113,2.73739 6.30348,5.70253 9.13393,8.87297 3.59934,3.91437 6.64349,8.30496 9.04695,13.04847 1.73979,3.87105 3.95803,7.48112 5.9588,11.26518 1.04388,2.00077 2.00077,4.04503 3.00115,6.0458 0.29242,0.41558 0.52657,0.86924 0.69592,1.34834 0.75374,2.88032 1.75795,5.68919 3.00115,8.39452 0.26794,1.48978 0.69068,2.94751 1.26135,4.34949 0.32179,0.66586 0.49963,1.39205 0.52194,2.13125 0.18212,1.91194 0.59094,3.79545 1.21786,5.61084 0.46728,1.90834 0.71535,3.86375 0.73941,5.82832 l 0.95689,2.04426 c 0.65242,7.26365 0,14.44031 0,21.74746 -0.0755,0.73709 -0.22118,1.4653 -0.43495,2.17474 0,0.47845 -0.39146,1.04388 0,1.39184 1.34834,2.26174 0,4.34949 -0.39146,6.43725 0,0.69592 0.73942,1.39184 1.52233,1.21786 l 0.69591,-0.21748 1.52233,-0.65242 c 0.7022,3.90216 0.89228,7.87927 0.56543,11.83061 0.34796,3.95804 0.21747,7.95957 0.30446,11.87412 l 0.95689,2.04426 c 0.30447,1.39183 -0.73941,2.34872 -1.04388,3.65357 l -0.56543,6.56773 c -1.17992,2.49117 -1.60335,5.27368 -1.21786,8.00307 v 3.00115 l -1.17436,2.82716 c -0.12508,0.43937 -0.19807,0.89193 -0.21747,1.34835 -0.0154,3.4737 -0.74063,6.90759 -2.13126,10.09082 -0.45958,1.42381 -0.82286,2.87692 -1.08737,4.34949 -0.8451,2.5725 -1.4993,5.20383 -1.95727,7.87258 -1.65281,1.91377 -1.13087,4.34949 -1.34834,6.43725 -0.50773,1.6808 -1.28637,3.26748 -2.30523,4.69745 -1.00038,1.47882 -0.34796,3.47959 -1.60931,4.91492 -1.15506,4.56119 -2.91017,8.94896 -5.21939,13.04848 -1.24342,2.40432 -2.24859,4.92453 -3.00115,7.52462 -0.54889,1.90536 -1.36921,3.72177 -2.43572,5.39336 -2.73562,4.17462 -5.17724,8.53466 -7.30714,13.04848 -1.63951,3.07165 -3.56159,5.98389 -5.74133,8.69898 -1.04573,1.37095 -1.97677,2.8257 -2.78368,4.34949 -2.40629,4.74183 -5.45018,9.13205 -9.04694,13.04848 -0.58619,0.48948 -1.09888,1.06077 -1.52232,1.6963 -1.79665,2.76247 -3.78796,5.39333 -5.9588,7.87258 -1.49752,2.32484 -3.1851,4.5216 -5.04541,6.56773 -2.41559,2.23218 -4.57468,4.72681 -6.43725,7.43763 -0.5931,0.82985 -1.29534,1.57598 -2.08776,2.21824 l -12.09158,11.65664 c -1.3323,1.23584 -2.79004,2.32915 -4.34949,3.26212 -1.14106,0.98183 -2.14987,2.10761 -3.00115,3.34911 -0.47368,0.60121 -1.04753,1.11621 -1.6963,1.52232 -3.5074,2.21699 -6.76011,4.81333 -9.69937,7.74209 l -5.48036,2.69669 -3.4361,3.00115 c -2.91416,1.47882 -5.74133,3.26211 -8.69898,4.87143 -2.95766,1.60931 -5.74133,3.3491 -8.69898,4.82793 -2.95766,1.47883 -6.95919,3.30562 -10.39529,5.04541 -1.17436,0.60893 -2.5227,0.69592 -3.65357,1.17436 -1.1376,0.59778 -2.22812,1.28117 -3.26212,2.04427 -0.20635,0.16139 -0.443,0.27971 -0.69592,0.34795 -2.6924,0.83569 -5.33532,1.82315 -7.91607,2.95766 -1.78329,0.47844 -3.34911,1.30485 -5.08891,1.7398 -1.73979,0.43494 -4.00153,1.04387 -5.91531,1.6963 -1.91248,0.77958 -3.91388,1.3201 -5.9588,1.60931 -2.04426,0 -3.82755,1.39184 -6.0023,1.39184 -1.48414,0.27157 -2.94012,0.67924 -4.34949,1.21785 -1.52232,0.30447 -3.08814,0.26097 -4.65395,0.52194 -0.75218,0.19754 -1.4812,0.47457 -2.17475,0.82641 h -1.56582 c -3.62805,-0.23859 -7.26912,0.1889 -10.74324,1.26135 -1.00861,0.25269 -2.05142,0.34082 -3.08814,0.26097 l -8.48151,0.30446 -3.47959,1.13087 h -14.44031 c -2.06866,0.0391 -4.1327,-0.20979 -6.13279,-0.73941 -2.02876,-0.43809 -4.10102,-0.6424 -6.17627,-0.60893 -2.85461,0.24545 -5.72735,-0.17132 -8.39452,-1.21786 -0.504,-0.0835 -1.01832,-0.0835 -1.52232,0 -4.32582,-0.61402 -8.58993,-1.60365 -12.74401,-2.95765 -2.43572,-0.73942 -4.95842,-1.34835 -7.39414,-2.17475 -2.2808,-1.17134 -4.68887,-2.0762 -7.17666,-2.69668 -3.79241,-2.12858 -7.71466,-4.01707 -11.74363,-5.65434 -5.04541,-3.00115 -10.35179,-5.61085 -15.26671,-8.69899 -4.82936,-2.87368 -9.39911,-6.16274 -13.6574,-9.82985 -3.07646,-1.82365 -5.88663,-4.063 -8.35103,-6.65472 -2.78367,-2.60969 -6.17628,-4.34949 -8.69898,-7.26365 -2.65381,-2.82289 -5.51822,-5.44011 -8.5685,-7.82908 -3.25317,-2.81604 -6.01639,-6.15249 -8.17704,-9.87335 -1.65281,-2.47921 -3.4796,-4.91492 -5.1759,-7.39413 -4.21245,-5.92709 -8.01967,-12.132 -11.39566,-18.57233 -1.56582,-3.65358 -3.39261,-7.22016 -5.00192,-10.87373 -1.60931,-3.65357 -2.5227,-7.48113 -3.69707,-11.22169 -0.89696,-1.76592 -1.45744,-3.68334 -1.6528,-5.65434 0,-1.73979 -1.52233,-3.13163 -1.39184,-4.95842 0.13048,-1.82678 -1.30485,-3.30561 -1.30485,-5.04541 0,-1.73979 -0.30446,-2.95765 -0.56543,-4.34949 -0.22453,-0.7144 -0.53104,-1.40038 -0.9134,-2.04426 0,-2.26174 -0.30446,-4.34949 -0.47844,-6.69822 0.0138,-0.7436 -0.11921,-1.48263 -0.39145,-2.17474 -0.93662,-2.14692 -1.31084,-4.49706 -1.08738,-6.8287 0,-6.21978 0,-12.43955 -0.26097,-18.65932 -0.13265,-1.04549 -0.35086,-2.07833 -0.65242,-3.08814 l 0.69592,-1.91378 c 0,-2.39222 0,-4.87143 0.26097,-7.35064 -0.0263,-1.7496 0.26858,-3.48917 0.8699,-5.1324 0.30325,-0.94109 0.45019,-1.92553 0.43495,-2.91416 0,-2.47921 0.34795,-4.95842 0.47844,-7.13316 0.4975,-0.98586 0.89108,-2.02081 1.17436,-3.08814 0.34844,-1.95425 0.81322,-3.88596 1.39184,-5.78483 0.21015,-1.98198 0.76973,-3.91105 1.65281,-5.69783 0.21253,-2.39642 0.7996,-4.74468 1.73979,-6.95919 0.61933,-2.40245 1.44893,-4.74572 2.47921,-7.00268 0.27877,-0.41759 0.45739,-0.8939 0.52194,-1.39183 0.29913,-2.46954 1.09829,-4.85223 2.34873,-7.00269 0.91339,-2.30523 2.13125,-4.34949 2.87066,-6.87219 1.09407,-2.23099 2.05269,-4.52588 2.87067,-6.8722 0.13786,-0.48379 0.35861,-0.94 0.65242,-1.34834 3.13163,-5.39337 5.0889,-11.35217 8.04656,-16.83253 2.95765,-5.48036 5.48036,-10.65626 8.39452,-15.87565 1.01557,-2.01147 2.17861,-3.94503 3.47959,-5.78482 1.34834,-1.78329 2.04426,-4.04503 3.4361,-5.78482 2.39222,-2.95766 3.82755,-6.43725 6.08929,-9.48189 2.26173,-3.04465 5.61084,-7.08967 8.26403,-10.74325 1.47883,-2.04426 3.04464,-4.00153 4.74095,-5.87181 1.56165,-1.64349 3.01455,-3.38698 4.34949,-5.21939 0.77614,-0.99831 1.65041,-1.91629 2.60969,-2.74018 l 12.04809,-11.70013 c 1.00953,-1.15019 2.18179,-2.14661 3.4796,-2.95766 2.33005,-1.55269 4.58016,-3.22212 6.74171,-5.00191 1.08737,-0.69592 2.26173,-1.21786 3.4361,-1.78329 1.71065,-0.576 3.58817,-0.36915 5.1324,0.56543 l -5.30638,5.43687 c 0.54612,1.98515 2.9596,0.25992 4.43648,-0.21748 0.52194,0 0.73941,0 0.60893,0.43495"
     style="fill:#ffffff;stroke-width:4.3494916;image-rendering:optimizeQuality;shape-rendering:geometricPrecision;text-rendering:geometricPrecision"
     id="path4851-9" /><g
     id="g4672"
     clip-path="url(#clipPath4899)"><path
       class="fil0"
       d="m 311.52716,267.92378 c -30.47591,31.35927 41.07621,-49.90981 44.16797,-53.44325 11.48367,-13.25039 11.48367,-13.25039 11.92535,-13.25039 0.44168,0 1.32504,0.44168 24.73407,4.85848 7.06687,1.32504 109.97826,21.20063 110.41993,21.20063 38.86782,24.29238 87.45259,52.11821 117.04514,72.87716 0.44168,0 -8.39192,1.32503 -13.69208,1.76671 -2.65007,0.44168 -15.90047,1.32504 -15.90047,1.76672 0,0 0,0.44168 0,19.43391 -0.44168,18.55055 -0.44168,55.65165 -0.44168,74.64388 0,18.55055 0,18.55055 0,18.55055 0,0.44168 0,0.44168 -22.52566,0 -22.08399,0 -66.25196,0 -88.33595,0 -22.08399,0 -22.08399,0 -22.08399,-0.44168 0,0 0,-0.44168 0,-22.08399 0,-22.52567 -0.44168,-65.81028 -0.44168,-87.89427 -0.44168,-21.64231 -0.44168,-21.64231 0,-21.64231 0,0 0,0 5.30016,-0.88336 5.74184,-0.88335 16.34215,-2.20839 21.64231,-3.09175 5.30015,-0.88336 5.30015,-0.88336 5.30015,-0.88336 -0.44168,-0.44168 -0.88336,-0.44168 -20.31727,-11.92536 -19.87558,-11.92535 -59.62676,-35.33438 -79.50235,-46.81805 -19.87559,-11.92535 -20.31727,-11.92535 -20.31727,-11.92535 -0.44168,-0.44168 -0.44168,-0.44168 -11.92535,11.48367 -5.74184,6.6252 -43.28462,44.16798 -45.05133,47.70141 z"
       id="path6"
       inkscape:connector-curvature="0"
       style="fill:#800000;stroke-width:0.44167975" /><path
       class="fil0"
       d="m 343.76978,321.80871 c 0,-0.44168 0,-0.44168 9.71695,-2.2084 10.15864,-1.76672 29.59254,-5.30015 39.3095,-6.62519 9.71695,-1.76672 9.71695,-1.76672 9.71695,-1.76672 0,0 0,0 0,10.60031 0,10.15864 0,30.4759 0,40.63454 0,10.15863 0,10.15863 0,10.15863 0,0 0,-0.44168 -9.71695,0.44168 -9.71696,0.44168 -28.70918,1.76672 -38.86782,2.2084 -9.71695,0.44168 -9.71695,0.44168 -9.27527,0.44168 0,0 0,0.44168 0,-8.39191 -0.44168,-8.39192 -0.44168,-26.05911 -0.44168,-34.8927 -0.44168,-9.27528 -0.44168,-10.15864 -0.44168,-10.60032 z"
       id="path8"
       inkscape:connector-curvature="0"
       style="fill:#550000;stroke-width:0.44167975" /><path
       class="fil0"
       d="m 257.20055,274.54898 c 0,0.44168 0,1.32504 0,24.73407 0,23.8507 0,69.7854 0,92.75274 0,23.85071 0,24.29239 0,24.29239 0,0.44168 0,0.44168 0,0.44168 0,0 0,0 6.62519,0 6.6252,0 20.75895,-0.44168 27.38415,-0.44168 7.06687,0 7.06687,0 7.06687,0 0,0 0,0 0,-17.66719 0.44168,-18.10887 0.44168,-53.00157 0.88336,-70.66876 0,-17.66719 0,-17.66719 -4.85847,-16.34215 -4.85848,1.32504 -15.01712,3.53344 -19.87559,4.85848 -4.85848,1.76671 -4.85848,1.76671 0,-4.85848 5.30015,-6.18352 15.45879,-18.55055 20.31727,-24.73407 4.85847,-6.62519 5.30015,-6.62519 4.85847,-7.06687 0,0 -0.44168,0 -7.50855,-0.88336 -7.06688,-0.88336 -20.75895,-2.65008 -27.38415,-3.53344 -6.62519,-0.88336 -7.06687,-0.88336 -7.50855,-0.88336 z"
       id="path10"
       inkscape:connector-curvature="0"
       style="fill:#800000;stroke-width:0.44167975" /></g><path
     inkscape:connector-curvature="0"
     d="m 317.9753,204.3028 a 135.9651,135.9651 0 0 0 -11.39567,14.39682 c -0.47844,0.56543 -0.65242,1.39183 -1.17436,1.91377 a 40.015321,40.015321 0 0 0 -7.30715,11.30868 95.079882,95.079882 0 0 1 -5.26288,9.09044 c -2.47921,3.78406 -4.34949,7.87258 -6.48074,11.83061 -1.60931,6.0023 -5.39337,11.1782 -7.04618,17.39797 a 69.330893,69.330893 0 0 1 -3.74056,8.69898 c -1.08737,2.52271 -2.04426,5.04541 -3.00115,7.61161 -0.95689,2.5662 -2.08776,5.61085 -3.34911,8.13355 a 73.11495,73.11495 0 0 0 -2.95765,8.69898 26.618887,26.618887 0 0 0 -2.34873,9.30792 4.6104609,4.6104609 0 0 1 -0.52194,2.13125 8.3945184,8.3945184 0 0 0 -0.91339,3.56658 20.44261,20.44261 0 0 0 0,2.21824 c 0,2.08776 -1.21786,3.78406 -1.47883,5.74133 -0.26097,1.95727 -0.30446,3.95804 -0.60893,5.91531 a 8.6989828,8.6989828 0 0 1 -0.8264,2.04426 l -0.52194,9.65587 -0.95689,2.39222 v 13.57041 c 0,0 0,0 0,0.26097 0,0.26097 0.52194,1.39184 0.8699,2.30523 l 0.52194,16.52807 a 18.180874,18.180874 0 0 1 1.26135,3.91454 21.138528,21.138528 0 0 0 1.65281,7.17666 c -0.21747,2.34873 1.34834,4.34949 1.65281,6.43725 0.30446,2.08776 1.34834,4.34949 1.73979,6.43725 a 44.756267,44.756267 0 0 0 1.82679,5.65434 c 0.69592,2.13125 1.65281,4.34949 2.39222,6.21977 a 19.964166,19.964166 0 0 0 0.52194,2.17474 177.0243,177.0243 0 0 0 15.48419,27.35831 95.688811,95.688811 0 0 0 12.13508,14.44031 31.881772,31.881772 0 0 0 7.04618,5.82832 14.701281,14.701281 0 0 1 3.43609,3.00114 114.39162,114.39162 0 0 0 22.2694,16.04963 c 6.8722,4.04503 14.13585,7.30714 21.26901,10.74324 1.82679,1.52232 4.61046,0.8699 6.39376,2.52271 a 37.188151,37.188151 0 0 0 6.69821,1.87028 29.533047,29.533047 0 0 1 5.1759,1.47883 39.884836,39.884836 0 0 0 6.0023,1.43533 11.961101,11.961101 0 0 1 2.91415,1.04388 51.019534,51.019534 0 0 1 10.74325,1.13086 6.4372473,6.4372473 0 0 1 6.04579,0.21748 h 6.13278 c 1.13087,-0.9134 2.5662,0 3.61008,-0.34796 1.04388,-0.34796 2.95766,1.00038 4.34949,0 a 9.6558709,9.6558709 0 0 1 4.34949,-0.78291 c 1.56582,0 3.13164,0 4.69746,0 l 3.61007,-1.47883 a 17.397966,17.397966 0 0 0 7.6986,-1.26135 1.7832915,1.7832915 0 0 1 0.78291,0 21.747457,21.747457 0 0 0 7.56812,-1.43533 c 2.69668,0 4.91492,-1.43533 7.48112,-1.78329 1.00038,0 1.91378,-0.9134 2.91416,-1.00039 a 31.403328,31.403328 0 0 0 10.87373,-3.78405 c 3.47959,-1.60932 7.00268,-3.17513 10.56926,-4.61046 a 84.249648,84.249648 0 0 0 14.44031,-7.22016 28.097714,28.097714 0 0 1 4.3495,-1.6963 22.878325,22.878325 0 0 1 6.08928,-4.34949 c 0.47845,0 0.78291,-0.60893 1.17437,-0.95689 a 54.281653,54.281653 0 0 1 7.6986,-5.56735 c 2.65319,-1.52232 4.61046,-3.95804 7.26365,-5.61084 a 67.199642,67.199642 0 0 0 6.35025,-5.48036 23.400264,23.400264 0 0 1 3.4796,-1.95727 33.01264,33.01264 0 0 0 5.82832,-6.65473 4.3494914,4.3494914 0 0 0 3.3926,-2.78367 57.500276,57.500276 0 0 1 3.08814,-7.43763 8.090054,8.090054 0 0 1 -0.73941,-1.39184 2.044261,2.044261 0 0 1 0.43494,-2.08775 6.9156913,6.9156913 0 0 1 3.26212,-1.82679 l 2.04426,-4.04503 0.30447,-6.21977 c 0.8264,-2.21824 2.78367,-2.65319 4.08852,-3.78406 1.00038,-1.87028 0,-3.91454 0.73941,-5.82832 l 4.3495,-4.95842 0.21747,-5.43686 3.69707,-3.82755 a 18.920288,18.920288 0 0 1 1.56581,-4.34949 c 1.04388,-1.52233 0.60893,-3.39261 1.60932,-4.91493 a 27.053837,27.053837 0 0 0 1.60931,-4.34949 5.2628846,5.2628846 0 0 0 0.60893,-2.87067 19.050772,19.050772 0 0 1 1.91377,-7.87258 12.048091,12.048091 0 0 1 4.34949,-6.65472 c 0,-2.34872 1.47883,-3.91454 1.87029,-5.87181 a 22.095416,22.095416 0 0 1 1.56581,-4.95842 c 0.78291,-1.82679 1.17437,-3.82755 2.00077,-5.56735 a 23.748223,23.748223 0 0 0 1.04388,-5.0889 l 4.34949,-8.69899 0.56543,-4.95842 a 28.967613,28.967613 0 0 0 2.17475,-3.17513 c 0.78291,-1.52232 0.60893,-3.43609 1.78329,-4.87143 a 45.974124,45.974124 0 0 1 1.7398,-7.17666 30.44644,30.44644 0 0 1 1.47882,-5.00191 c 0.60893,-1.60931 0.30447,-3.4361 1.30485,-5.00192 1.00038,-1.56581 0.43495,-3.91454 1.43533,-5.74133 1.00039,-1.82678 0.73942,-3.87104 1.91378,-5.61084 a 4.9584202,4.9584202 0 0 0 0.34796,-2.17475 15.353705,15.353705 0 0 1 1.17436,-5.04541 21.399498,21.399498 0 0 0 0.73941,-4.34949 10.395284,10.395284 0 0 1 1.00039,-2.13125 l 0.52194,-12.04809 1.08737,-2.5662 c 0.52194,-9.91684 0.30446,-19.83368 0,-30.09848 l -1.08737,-2.82717 -0.43495,-6.26327 a 24.139677,24.139677 0 0 1 -3.39261,-8.13355 3.4360982,3.4360982 0 0 0 -0.43495,-1.39183 c -2.13125,-4.34949 -3.08813,-8.69899 -5.21939,-13.04848 -1.13086,-2.21824 -2.30523,-4.34949 -3.3926,-6.69821 a 25.444525,25.444525 0 0 0 -5.00191,-7.43763 c -1.08738,-1.04388 -1.60932,-2.5662 -2.65319,-3.65358 a 62.154232,62.154232 0 0 0 -5.56735,-5.21939 83.031791,83.031791 0 0 0 -19.09427,-12.65702 59.240073,59.240073 0 0 0 -9.87335,-4.34949 8.6989828,8.6989828 0 0 1 -2.04426,-1.00038 c -0.91339,-0.47845 -1.73979,-1.34834 -2.65319,-1.43533 -1.87028,0 -3.3491,-1.39184 -5.1324,-1.69631 a 22.74784,22.74784 0 0 1 -5.21939,-1.30484 31.620802,31.620802 0 0 1 -4.34949,-1.26135 4.3494914,4.3494914 0 0 0 -1.47882,-0.39146 15.04924,15.04924 0 0 1 -6.78521,-1.47883 33.186619,33.186619 0 0 1 -6.04579,-1.34834 c -2.13125,-0.78291 -4.3495,-0.78291 -6.74172,-1.60931 -2.39222,-0.8264 -4.34949,-0.30446 -5.9588,-1.43533 l -6.91569,-0.52194 -2.65319,-1.08737 -11.52615,-0.43495 -3.04465,-1.00039 h -11.52615 a 7.1766608,7.1766608 0 0 0 -2.34872,0 54.760097,54.760097 0 0 1 -13.04848,1.47883 l -2.78367,1.00038 -6.69822,0.52194 a 12.048091,12.048091 0 0 1 -2.74018,1.00039 101.29965,101.29965 0 0 0 -10.56926,2.34872 c -3.26212,0.73941 -6.39375,1.91378 -9.56888,2.91416 a 8.6989828,8.6989828 0 0 1 -2.17475,0.69592 18.441844,18.441844 0 0 0 -6.61123,2.04426 c -1.6528,0.69592 -3.26211,1.56582 -4.95842,2.39222 a 28.532664,28.532664 0 0 0 -9.61237,3.26212 c -2.39222,0 -5.21939,0 -8.09006,0 -2.87066,0 -5.17589,0 -7.91607,0 a 4.3494914,4.3494914 0 0 1 -2.21824,-1.78329 1.8702813,1.8702813 0 0 1 0.43495,-2.65319 c 3.21862,-2.08776 6.35026,-4.34949 9.69936,-6.17628 a 172.19636,172.19636 0 0 1 21.13853,-11.00421 c 0.69592,-0.26097 1.47883,-0.39146 2.21824,-0.69592 a 135.9651,135.9651 0 0 1 15.22322,-5.39337 c 2.69669,-0.78291 5.56735,-1.13087 8.26404,-1.95727 2.17474,0.21747 3.91454,-1.21786 6.00229,-1.34835 l 5.1759,-0.39145 a 7.1331659,7.1331659 0 0 0 2.26173,-0.34796 16.049623,16.049623 0 0 1 6.13279,-0.91339 l 5.48036,-0.21748 a 11.569647,11.569647 0 0 0 5.34987,-0.73941 26.749372,26.749372 0 0 0 5.30638,0.65242 q 5.87181,0 11.70013,0 a 18.746308,18.746308 0 0 1 8.39452,1.13087 l 8.69898,0.65243 1.95727,0.73941 a 13.309444,13.309444 0 0 0 3.82756,0.47844 11.395667,11.395667 0 0 1 4.04502,0.69592 c 2.17475,1.13087 4.65396,0.52194 6.78521,1.52232 a 9.0034472,9.0034472 0 0 0 2.17475,0.78291 23.661233,23.661233 0 0 1 6.8287,1.30485 c 1.82678,0.91339 4.08852,0.30446 6.0023,1.34834 1.91377,1.04388 4.69745,0.30447 6.69821,1.7398 a 46.974507,46.974507 0 0 1 13.04848,4.04503 c 0.91339,0.39145 2.00076,0.52193 2.95765,0.8264 1.6963,0.60893 3.34911,1.21786 5.1324,1.6963 a 36.144274,36.144274 0 0 1 5.61084,2.5662 c 2.08776,1.00038 4.13202,2.13125 6.26327,3.00115 a 138.44431,138.44431 0 0 1 16.78904,9.3949 c 2.60969,2.43572 5.9588,4.00153 8.69898,6.39375 a 89.643018,89.643018 0 0 1 9.13393,8.87297 58.022215,58.022215 0 0 1 9.04695,13.04847 c 1.73979,3.87105 3.95803,7.48112 5.9588,11.26518 1.04388,2.00077 2.00077,4.04503 3.00115,6.0458 a 5.567349,5.567349 0 0 1 0.69592,1.34834 51.063029,51.063029 0 0 0 3.00115,8.39452 21.747457,21.747457 0 0 0 1.26135,4.34949 5.2628846,5.2628846 0 0 1 0.52194,2.13125 24.226667,24.226667 0 0 0 1.21786,5.61084 25.835979,25.835979 0 0 1 0.73941,5.82832 l 0.95689,2.04426 c 0.65242,7.26365 0,14.44031 0,21.74746 a 11.656637,11.656637 0 0 1 -0.43495,2.17474 c 0,0.47845 -0.39146,1.04388 0,1.39184 1.34834,2.26174 0,4.34949 -0.39146,6.43725 0,0.69592 0.73942,1.39184 1.52233,1.21786 l 0.69591,-0.21748 1.52233,-0.65242 a 45.58267,45.58267 0 0 1 0.56543,11.83061 c 0.34796,3.95804 0.21747,7.95957 0.30446,11.87412 l 0.95689,2.04426 c 0.30447,1.39183 -0.73941,2.34872 -1.04388,3.65357 l -0.56543,6.56773 a 14.092352,14.092352 0 0 0 -1.21786,8.00307 c 0,1.00038 0,2.00076 0,3.00115 l -1.17436,2.82716 a 5.8283185,5.8283185 0 0 0 -0.21747,1.34835 25.48802,25.48802 0 0 1 -2.13126,10.09082 33.360599,33.360599 0 0 0 -1.08737,4.34949 55.064561,55.064561 0 0 0 -1.95727,7.87258 c -1.65281,1.91377 -1.13087,4.34949 -1.34834,6.43725 a 16.136613,16.136613 0 0 1 -2.30523,4.69745 c -1.00038,1.47882 -0.34796,3.47959 -1.60931,4.91492 a 53.19428,53.19428 0 0 1 -5.21939,13.04848 41.494148,41.494148 0 0 0 -3.00115,7.52462 20.660084,20.660084 0 0 1 -2.43572,5.39336 107.51943,107.51943 0 0 0 -7.30714,13.04848 56.064944,56.064944 0 0 1 -5.74133,8.69898 31.403328,31.403328 0 0 0 -2.78368,4.34949 58.283185,58.283185 0 0 1 -9.04694,13.04848 7.9595693,7.9595693 0 0 0 -1.52232,1.6963 69.330893,69.330893 0 0 1 -5.9588,7.87258 50.062646,50.062646 0 0 1 -5.04541,6.56773 44.234328,44.234328 0 0 0 -6.43725,7.43763 11.352173,11.352173 0 0 1 -2.08776,2.21824 l -12.09158,11.65664 a 26.096948,26.096948 0 0 1 -4.34949,3.26212 17.397966,17.397966 0 0 0 -3.00115,3.34911 6.6547218,6.6547218 0 0 1 -1.6963,1.52232 56.543388,56.543388 0 0 0 -9.69937,7.74209 l -5.48036,2.69669 -3.4361,3.00115 c -2.91416,1.47882 -5.74133,3.26211 -8.69898,4.87143 -2.95766,1.60931 -5.74133,3.3491 -8.69898,4.82793 -2.95766,1.47883 -6.95919,3.30562 -10.39529,5.04541 -1.17436,0.60893 -2.5227,0.69592 -3.65357,1.17436 a 25.357535,25.357535 0 0 0 -3.26212,2.04427 1.9572711,1.9572711 0 0 1 -0.69592,0.34795 74.680767,74.680767 0 0 0 -7.91607,2.95766 c -1.78329,0.47844 -3.34911,1.30485 -5.08891,1.7398 -1.73979,0.43494 -4.00153,1.04387 -5.91531,1.6963 a 25.096565,25.096565 0 0 1 -5.9588,1.60931 c -2.04426,0 -3.82755,1.39184 -6.0023,1.39184 a 24.574626,24.574626 0 0 0 -4.34949,1.21785 c -1.52232,0.30447 -3.08814,0.26097 -4.65395,0.52194 a 10.960718,10.960718 0 0 0 -2.17475,0.82641 h -1.56582 a 29.794016,29.794016 0 0 0 -10.74324,1.26135 9.6558709,9.6558709 0 0 1 -3.08814,0.26097 l -8.48151,0.30446 -3.47959,1.13087 h -14.44031 a 22.312891,22.312891 0 0 1 -6.13279,-0.73941 27.184321,27.184321 0 0 0 -6.17627,-0.60893 18.615823,18.615823 0 0 1 -8.39452,-1.21786 4.6539558,4.6539558 0 0 0 -1.52232,0 75.246201,75.246201 0 0 1 -12.74401,-2.95765 c -2.43572,-0.73942 -4.95842,-1.34835 -7.39414,-2.17475 a 33.404094,33.404094 0 0 0 -7.17666,-2.69668 103.95284,103.95284 0 0 0 -11.74363,-5.65434 c -5.04541,-3.00115 -10.35179,-5.61085 -15.26671,-8.69899 a 96.732689,96.732689 0 0 1 -13.6574,-9.82985 38.884453,38.884453 0 0 1 -8.35103,-6.65472 c -2.78367,-2.60969 -6.17628,-4.34949 -8.69898,-7.26365 a 76.507554,76.507554 0 0 0 -8.5685,-7.82908 38.884453,38.884453 0 0 1 -8.17704,-9.87335 c -1.65281,-2.47921 -3.4796,-4.91492 -5.1759,-7.39413 a 161.45312,161.45312 0 0 1 -11.39566,-18.57233 c -1.56582,-3.65358 -3.39261,-7.22016 -5.00192,-10.87373 -1.60931,-3.65357 -2.5227,-7.48113 -3.69707,-11.22169 a 15.962633,15.962633 0 0 1 -1.6528,-5.65434 c 0,-1.73979 -1.52233,-3.13163 -1.39184,-4.95842 0.13048,-1.82678 -1.30485,-3.30561 -1.30485,-5.04541 0,-1.73979 -0.30446,-2.95765 -0.56543,-4.34949 a 9.6993658,9.6993658 0 0 0 -0.9134,-2.04426 c 0,-2.26174 -0.30446,-4.34949 -0.47844,-6.69822 a 5.6543388,5.6543388 0 0 0 -0.39145,-2.17474 13.787888,13.787888 0 0 1 -1.08738,-6.8287 c 0,-6.21978 0,-12.43955 -0.26097,-18.65932 a 19.268247,19.268247 0 0 0 -0.65242,-3.08814 l 0.69592,-1.91378 c 0,-2.39222 0,-4.87143 0.26097,-7.35064 a 14.309827,14.309827 0 0 1 0.8699,-5.1324 9.0469421,9.0469421 0 0 0 0.43495,-2.91416 c 0,-2.47921 0.34795,-4.95842 0.47844,-7.13316 a 15.919139,15.919139 0 0 0 1.17436,-3.08814 49.888666,49.888666 0 0 1 1.39184,-5.78483 16.876027,16.876027 0 0 1 1.65281,-5.69783 23.00881,23.00881 0 0 1 1.73979,-6.95919 42.277056,42.277056 0 0 1 2.47921,-7.00268 3.2621185,3.2621185 0 0 0 0.52194,-1.39183 18.311359,18.311359 0 0 1 2.34873,-7.00269 c 0.91339,-2.30523 2.13125,-4.34949 2.87066,-6.87219 a 61.849768,61.849768 0 0 0 2.87067,-6.8722 4.3494914,4.3494914 0 0 1 0.65242,-1.34834 c 3.13163,-5.39337 5.0889,-11.35217 8.04656,-16.83253 2.95765,-5.48036 5.48036,-10.65626 8.39452,-15.87565 a 45.66966,45.66966 0 0 1 3.47959,-5.78482 c 1.34834,-1.78329 2.04426,-4.04503 3.4361,-5.78482 2.39222,-2.95766 3.82755,-6.43725 6.08929,-9.48189 2.26173,-3.04465 5.61084,-7.08967 8.26403,-10.74325 1.47883,-2.04426 3.04464,-4.00153 4.74095,-5.87181 a 52.193897,52.193897 0 0 0 4.34949,-5.21939 18.920288,18.920288 0 0 1 2.60969,-2.74018 l 12.04809,-11.70013 a 15.701664,15.701664 0 0 1 3.4796,-2.95766 83.118781,83.118781 0 0 0 6.74171,-5.00191 c 1.08737,-0.69592 2.26173,-1.21786 3.4361,-1.78329 a 6.1327829,6.1327829 0 0 1 5.1324,0.56543 l -5.30638,5.43687 c 0,0.69591 0.26097,1.08737 0.8264,0.95688 0.56543,-0.13048 2.39222,-0.78291 3.61008,-1.17436 0.52194,0 0.73941,0 0.60893,0.43495 -0.13049,0.43495 0,0.43495 0,0.60893 a 70.89671,70.89671 0 0 0 -7.39414,11.26518 6.7417117,6.7417117 0 0 1 -1.6963,1.56582 8.4380133,8.4380133 0 0 0 -1.60931,2.47921 17.397966,17.397966 0 0 1 -2.65319,4.34949 36.970677,36.970677 0 0 0 -3.95804,7.17666 z"
     id="path4604"
     style="stroke-width:4.3494916;fill:#000000" /></svg>